<svg fill="#ffffff" height="100px" width="100px" version="1.1" id="Layer_1" xmlns="http://www.w3.org/2000/svg" xmlns:xlink="http://www.w3.org/1999/xlink" viewBox="-51.2 -51.2 614.40 614.40" xml:space="preserve" stroke="#ffffff" stroke-width="1.536"><g id="SVGRepo_bgCarrier" stroke-width="0"></g><g id="SVGRepo_tracerCarrier" stroke-linecap="round" stroke-linejoin="round" stroke="#CCCCCC" stroke-width="3.072"></g><g id="SVGRepo_iconCarrier"> <g> <g> <path d="M295.261,57.079C281.077,23.161,247.46,0,209.595,0s-71.482,23.162-85.667,57.079 c-43.549,7.629-76.749,45.719-76.749,91.419V171.7h23.202h23.202h232.023h23.202h23.202v-23.202 C372.011,102.798,338.809,64.708,295.261,57.079z"></path> </g> </g> <g> <g> <path d="M464.7,192.531c-0.074-0.732-0.183-1.454-0.323-2.162c-2.107-10.644-11.494-18.669-22.758-18.669h-69.607v23.202v23.202 h46.405v154.682h-46.405V218.104h-23.202h-23.202H93.584H70.382H47.18v270.693C47.18,501.613,57.568,512,70.382,512h278.427 c12.814,0,23.202-10.387,23.202-23.202v-69.607h69.607c12.815,0,23.202-10.387,23.202-23.202V194.902 C464.82,194.101,464.78,193.311,464.7,192.531z M186.393,395.989c0,12.815-10.388,23.202-23.202,23.202 c-12.814,0-23.202-10.387-23.202-23.202V287.711c0-12.812,10.388-23.202,23.202-23.202c12.814,0,23.202,10.39,23.202,23.202 V395.989z M279.202,395.989c0,12.815-10.388,23.202-23.202,23.202s-23.202-10.387-23.202-23.202V287.711 c0-12.812,10.388-23.202,23.202-23.202s23.202,10.39,23.202,23.202V395.989z"></path> </g> </g> </g></svg>